<svg xmlns="http://www.w3.org/2000/svg" viewBox="208.5 290.5 201 72">
  <path fill="#005DAA" d="m281.6 339 .5 7.4h.1c.3-.8.5-1.6 1-2.3l2.5-5.1h4l.7 7.4h.1l.8-2.2 2.5-5.2h5.6l-7.6 12.3h-4.7l-.4-6.7h-.2c-.1.7-.3 1.3-.6 1.9l-2.4 4.8h-4.6l-2.8-12.3h5.5z"/>
  <path fill="#005DAA" d="M299 339h5.2l-.8 4.2h3.3l.8-4.2h5.2l-2.4 12.3h-5.2l.9-4.2h-3.3l-.9 4.2h-5.1L299 339z"/>
  <path fill="#005DAA" d="M327.9 345.2c-.8 4-5 6.3-9.4 6.3-4.5 0-7.8-2.3-7-6.3.7-3.9 4.9-6.4 9.4-6.4s7.7 2.5 7 6.4zm-11 0c-.3 1.5.7 2.4 2.3 2.4 1.6 0 3-1 3.2-2.3.3-1.3-.6-2.4-2.3-2.4-1.7 0-3 1-3.2 2.4zM329 339h5.3l-1.6 8.4h4.6l-.8 4h-9.9l2.4-12.4zm21 8 .2.1c.9.6 2 1.1 3.2 1.1.5 0 1.4-.1 1.5-.7s-.6-.6-1-.7l-1.1-.2c-2-.3-3.6-1.3-3.3-3.2.6-3 4.1-4.6 7.3-4.6a9 9 0 0 1 4.5 1l-2 3.2c-.9-.5-1.8-.9-3-.9-.4 0-1.2.2-1.3.7 0 .4.6.5 1 .6l1.2.2c2.2.4 3.6 1.4 3.2 3.5-.5 3-4 4.4-7.2 4.4-1.9 0-4-.4-5.5-1l2.3-3.6z"/>
  <path fill="#005DAA" d="m368.6 346.9-.2-2.2v-1.6h-.3l-1.7 3.8h2.2zm-4.7 4.4h-5.7l7.5-12.3h6l3 12.3h-5.8l-.2-1.5h-4l-.8 1.5z"/>
  <path fill="#005DAA" d="M376.5 339h5.4l-1.6 8.4h4.5l-.7 4h-10l2.4-12.4zm11 0h9.9l-.7 3.4h-4.5l-.2 1.2h4.1l-.6 3.2h-4.1l-.3 1.2h4.7l-.6 3.3H385l2.3-12.3z"/>
  <g fill="#E31837">
    <path d="m314.3 316.8 6.8-.2-5.7 18.8h12.2l5.7-18.8 6.7.2 2.7-9h-25.6l-2.8 9zm-25.2 4.9c-1.7 8.8-11 14-21.3 14-10.2 0-17.5-5.2-15.8-14 1.6-8.6 11-14.3 21.3-14.3 10.2 0 17.5 5.7 15.8 14.3zm-24.9.1c-.6 3.2 1.6 5.3 5.3 5.3 3.7 0 6.7-2.1 7.3-5.3.5-2.9-1.4-5.3-5.3-5.3-3.8 0-6.7 2.4-7.3 5.3z"/>
    <path d="M285.3 333.3c3.5 1.5 8.2 2.5 12.4 2.5 7.3 0 15.2-3.3 16.5-9.8.9-4.7-2.4-7-7.4-7.9l-2.7-.5c-.9-.2-2.4-.3-2.2-1.3.3-1.2 1.9-1.5 3-1.5 2.6 0 4.8 1 6.6 2l4.7-7c-3-1.6-6.4-2.4-10.2-2.4-7.3 0-15.3 3.7-16.5 10.2-.8 4.3 2.7 6.6 7.3 7.3l2.4.4c1.1.1 2.7.3 2.4 1.5s-2.2 1.6-3.4 1.6c-2.8 0-5.2-1.1-7.1-2.5l-.6-.4-5.2 7.8zm81.1-24.7c-2.4-.8-5.2-1.2-8-1.2-9.8 0-18.7 6.5-20.3 14.5-1.5 7.8 4.8 13.9 14.4 13.9a35 35 0 0 0 8.9-1.1l2.3-10.3a12.9 12.9 0 0 1-7.4 2.6c-3.7 0-6.4-2.4-5.8-5.4.6-3 4-5.3 7.6-5.3 2.8 0 5 1.2 6.7 2.7l1.6-10.4zm19.6-1.2c-10.2 0-19.7 5.7-21.3 14.3-1.8 8.8 5.6 14 15.8 14 10.2 0 19.6-5.2 21.3-14 1.7-8.6-5.6-14.3-15.8-14.3zm-1.8 9c3.9 0 5.8 2.5 5.3 5.4-.6 3.2-3.6 5.3-7.3 5.3s-5.9-2.1-5.3-5.3c.6-2.9 3.5-5.3 7.3-5.3zm-129-14c-3.1-.9-6.6-1.4-10-1.4-12.3 0-23.5 7.8-25.4 17.5-1.9 9.5 6 16.8 18 16.8a45 45 0 0 0 11-1.3l3-12.4c-2.9 1.9-6 3-9.4 3-4.6 0-8-2.8-7.2-6.4.7-3.6 5-6.5 9.6-6.5 3.4 0 6.1 1.5 8.2 3.3l2.1-12.6z"/>
    <path d="M394.3 334c.2-1 1.2-1.7 2.4-1.7 1.1 0 2 .8 1.7 1.7-.1 1-1.2 1.8-2.4 1.8-1.1 0-2-.8-1.7-1.8zm3.6 0c.2-.8-.4-1.3-1.3-1.3s-1.6.5-1.8 1.3c-.1.8.4 1.3 1.3 1.3 1 0 1.7-.5 1.8-1.3zm-.7 1h-.6l-.3-.8h-.4l-.1.7h-.5l.4-1.8h1c.5 0 .7.1.7.6 0 .3-.3.4-.6.5l.4.7zm-.7-1.2c.2 0 .4 0 .5-.2l-.4-.1h-.5l-.1.3h.5z"/>
  </g>
  <path fill="#005DAA" d="M220.7 351.4h57l-.7-3.2h-56.3zm0-4.5h56l-.8-3.2h-55.2zm0-4.5h55l-.3-1.2-.5-2.2h-54.2zM340 339h10l-.7 3.4h-4.6l-.2 1.2h4.2l-.6 3.2h-4.2l-.2 1.2h4.7l-.7 3.3h-10L340 339z"/>
</svg>
